<svg width="57" height="56" viewBox="0 0 57 56" fill="none" xmlns="http://www.w3.org/2000/svg">
<rect x="0.882324" width="56" height="56" rx="20" fill="#4053FF"/>
<g clip-path="url(#clip0_637_27316)">
<path fill-rule="evenodd" clip-rule="evenodd" d="M30.1435 20.6103C30.1435 21.3007 29.5839 21.8603 28.8935 21.8603C28.2032 21.8603 27.6435 21.3007 27.6435 20.6103C27.6435 19.92 28.2032 19.3603 28.8935 19.3603C29.5839 19.3603 30.1435 19.92 30.1435 20.6103ZM32.1706 20.6103C32.1706 22.4202 30.7034 23.8874 28.8935 23.8874C27.0837 23.8874 25.6165 22.4202 25.6165 20.6103C25.6165 18.8005 27.0837 17.3333 28.8935 17.3333C30.7034 17.3333 32.1706 18.8005 32.1706 20.6103ZM21.6976 23.3806C21.6976 24.071 21.138 24.6306 20.4476 24.6306C19.7572 24.6306 19.1976 24.071 19.1976 23.3806C19.1976 22.6903 19.7572 22.1306 20.4476 22.1306C21.138 22.1306 21.6976 22.6903 21.6976 23.3806ZM23.7246 23.3806C23.7246 25.1905 22.2575 26.6576 20.4476 26.6576C18.6377 26.6576 17.1706 25.1905 17.1706 23.3806C17.1706 21.5708 18.6377 20.1036 20.4476 20.1036C22.2575 20.1036 23.7246 21.5708 23.7246 23.3806ZM37.3395 24.6982C38.0298 24.6982 38.5895 24.1385 38.5895 23.4482C38.5895 22.7578 38.0298 22.1982 37.3395 22.1982C36.6492 22.1982 36.0895 22.7578 36.0895 23.4482C36.0895 24.1385 36.6492 24.6982 37.3395 24.6982ZM37.3395 26.7252C39.1494 26.7252 40.6165 25.258 40.6165 23.4482C40.6165 21.6383 39.1494 20.1712 37.3395 20.1712C35.5296 20.1712 34.0625 21.6383 34.0625 23.4482C34.0625 25.258 35.5296 26.7252 37.3395 26.7252ZM18.9273 29.4955H23.3192V35.3063H18.3192C17.9087 35.3063 17.576 34.9735 17.576 34.563V30.8468C17.576 30.1005 18.181 29.4955 18.9273 29.4955ZM15.549 30.8468C15.549 28.981 17.0615 27.4684 18.9273 27.4684H23.3192H24.1102C24.4969 26.0285 25.8112 24.9684 27.3733 24.9684H30.4138C31.9758 24.9684 33.2902 26.0285 33.6769 27.4684H34.4679H38.8598C40.7256 27.4684 42.2381 28.981 42.2381 30.8468V34.6306C42.2381 36.1232 41.0281 37.3333 39.5354 37.3333H34.4679H32.7111H32.4408H25.3462H25.076H23.3192H18.3192C16.7892 37.3333 15.549 36.093 15.549 34.563V30.8468ZM27.3733 26.9955C26.6269 26.9955 26.0219 27.6005 26.0219 28.3468V35.3063H31.7652V28.3468C31.7652 27.6005 31.1602 26.9955 30.4138 26.9955H27.3733ZM34.4679 29.4955H38.8598C39.6061 29.4955 40.2111 30.1005 40.2111 30.8468V34.6306C40.2111 35.0038 39.9086 35.3063 39.5354 35.3063H34.4679V29.4955Z" fill="white"/>
</g>
<defs>
<clipPath id="clip0_637_27316">
<rect width="26.6892" height="20" fill="white" transform="translate(15.549 17.3333)"/>
</clipPath>
</defs>
</svg>
