<svg width="57" height="56" viewBox="0 0 57 56" fill="none" xmlns="http://www.w3.org/2000/svg">
<rect x="0.882324" width="56" height="56" rx="20" fill="#4053FF"/>
<path d="M26.5936 32.4325L26.5936 32.4325C27.3995 32.9149 28.3145 33.1667 29.377 33.1667C31.0341 33.1667 32.3182 32.6415 33.3154 31.5408L33.2117 31.4877C32.9183 31.7876 32.5897 32.0527 32.2279 32.2814L32.2162 32.2888L32.2161 32.2888C31.3827 32.805 30.4312 33.0277 29.4289 33.0277C28.1703 33.0277 27.0211 32.6413 26.059 31.8435L26.0425 31.8299L26.0265 31.8158C25.1364 31.0339 24.6079 29.9803 24.3588 28.7851L25.8272 28.479L24.3588 28.7851C24.1202 27.6407 25.0222 26.6722 26.0831 26.6722H34.2784C34.2411 25.707 34.0283 24.8541 33.6578 24.0939L33.6534 24.085L33.6492 24.076C33.2691 23.2693 32.7197 22.6522 31.9828 22.1937L31.9827 22.1936C31.2742 21.7527 30.3836 21.5 29.2474 21.5C28.2441 21.5 27.3691 21.757 26.5829 22.2627L26.5936 32.4325ZM26.5936 32.4325C25.7758 31.943 25.1335 31.278 24.6541 30.4113C24.1944 29.5318 23.951 28.5254 23.951 27.3604C23.951 26.2761 24.1907 25.2993 24.6607 24.4053L24.6607 24.4053M26.5936 32.4325L24.6607 24.4053M24.6607 24.4053L24.6652 24.3965M24.6607 24.4053L24.6652 24.3965M24.6652 24.3965C25.1373 23.484 25.7743 22.7829 26.5828 22.2628L24.6652 24.3965Z" stroke="white" stroke-width="3"/>
</svg>
