<svg width="57" height="57" viewBox="0 0 57 57" fill="none" xmlns="http://www.w3.org/2000/svg">
<rect x="0.117554" y="0.5" width="56" height="56" rx="20" fill="#01A643"/>
<path d="M28.1175 33.6667H22.1175C20.2568 33.6667 19.3264 33.6667 18.5693 33.8963C16.8648 34.4134 15.5309 35.7473 15.0138 37.4518C14.7842 38.2089 14.7842 39.1393 14.7842 41M37.4508 41V33M33.4508 37H41.4508M31.4508 23C31.4508 26.3137 28.7646 29 25.4508 29C22.1371 29 19.4508 26.3137 19.4508 23C19.4508 19.6863 22.1371 17 25.4508 17C28.7646 17 31.4508 19.6863 31.4508 23Z" stroke="white" stroke-width="3.5" stroke-linecap="round" stroke-linejoin="round"/>
</svg>
