<svg width="57" height="57" viewBox="0 0 57 57" fill="none" xmlns="http://www.w3.org/2000/svg">
<rect x="0.117554" y="0.5" width="56" height="56" rx="20" fill="#7D40FF"/>
<path d="M20.1212 19.0105C19.7799 19.0105 19.4239 19.1252 19.1626 19.3852L17.4546 21.0945L17.0799 20.7185C16.5586 20.1985 15.6839 20.1985 15.1626 20.7185C14.6426 21.2398 14.6426 22.1145 15.1626 22.6358L16.4959 23.9692C17.0172 24.4891 17.8919 24.4891 18.4132 23.9692L21.0799 21.3025C21.5999 20.7812 21.5999 19.9065 21.0799 19.3852C20.8186 19.1252 20.4626 19.0105 20.1212 19.0105ZM25.4546 20.3438C24.7186 20.3438 24.1212 20.9412 24.1212 21.6772C24.1212 22.4132 24.7186 23.0105 25.4546 23.0105H40.1212C40.8572 23.0105 41.4545 22.4132 41.4545 21.6772C41.4545 20.9412 40.8572 20.3438 40.1212 20.3438H25.4546ZM20.1212 25.6772C19.7799 25.6772 19.4239 25.7918 19.1626 26.0518L17.4546 27.7611L17.0799 27.3852C16.5586 26.8652 15.6839 26.8652 15.1626 27.3852C14.6426 27.9065 14.6426 28.7811 15.1626 29.3025L16.4959 30.6358C17.0172 31.1558 17.8919 31.1558 18.4132 30.6358L21.0799 27.9691C21.5999 27.4478 21.5999 26.5732 21.0799 26.0518C20.8186 25.7918 20.4626 25.6772 20.1212 25.6772ZM25.4546 27.0105C24.7186 27.0105 24.1212 27.6078 24.1212 28.3438C24.1212 29.0798 24.7186 29.6771 25.4546 29.6771H40.1212C40.8572 29.6771 41.4545 29.0798 41.4545 28.3438C41.4545 27.6078 40.8572 27.0105 40.1212 27.0105H25.4546ZM20.1212 32.3438C19.7799 32.3438 19.4239 32.4585 19.1626 32.7185L17.4546 34.4278L17.0799 34.0518C16.5586 33.5318 15.6839 33.5318 15.1626 34.0518C14.6426 34.5732 14.6426 35.4478 15.1626 35.9691L16.4959 37.3025C17.0172 37.8225 17.8919 37.8225 18.4132 37.3025L21.0799 34.6358C21.5999 34.1145 21.5999 33.2398 21.0799 32.7185C20.8186 32.4585 20.4626 32.3438 20.1212 32.3438ZM25.4546 33.6771C24.7186 33.6771 24.1212 34.2745 24.1212 35.0105C24.1212 35.7465 24.7186 36.3438 25.4546 36.3438H40.1212C40.8572 36.3438 41.4545 35.7465 41.4545 35.0105C41.4545 34.2745 40.8572 33.6771 40.1212 33.6771H25.4546Z" fill="white"/>
</svg>
