<svg width="57" height="56" viewBox="0 0 57 56" fill="none" xmlns="http://www.w3.org/2000/svg">
<rect x="0.882324" width="56" height="56" rx="20" fill="#FF9C40"/>
<path d="M22.2135 15.9876C19.2681 15.9876 16.8801 18.3756 16.8801 21.321V33.321V34.6543C16.8801 37.5996 19.2681 39.9876 22.2135 39.9876H35.5468C38.4921 39.9876 40.8801 37.5996 40.8801 34.6543V33.321V21.321C40.8801 18.3756 38.4921 15.9876 35.5468 15.9876H22.2135ZM22.2135 18.6543H35.5468C37.0201 18.6543 38.2134 19.8476 38.2134 21.321L38.2188 29.5823C37.1814 28.6196 36.1241 28.017 34.9628 27.9876C34.9215 27.9863 34.9228 27.9876 34.8801 27.9876C33.3641 27.9876 31.6788 29.153 30.5468 30.613C30.2574 29.9596 29.9655 29.3143 29.6295 28.6957C28.0561 25.7903 26.3374 23.9916 24.2135 23.9876C22.4081 23.9836 20.8588 25.4596 19.5361 27.481L19.5468 21.321C19.5468 19.8476 20.7401 18.6543 22.2135 18.6543ZM34.2134 21.321C33.4774 21.321 32.8801 21.9183 32.8801 22.6543C32.8801 23.3903 33.4774 23.9876 34.2134 23.9876C34.9494 23.9876 35.5468 23.3903 35.5468 22.6543C35.5468 21.9183 34.9494 21.321 34.2134 21.321ZM24.2135 26.6543C24.9894 26.6556 26.1681 27.8636 27.2961 29.9463C27.7441 30.7703 28.1454 31.6783 28.5054 32.5716C28.7214 33.105 28.8881 33.513 28.9628 33.737C29.3268 34.8263 30.8041 34.981 31.3801 33.9876C31.4374 33.889 31.5414 33.6996 31.7134 33.4463C32.0014 33.0196 32.3294 32.5877 32.6721 32.1957C33.5281 31.2143 34.3534 30.6543 34.8801 30.6543C35.4121 30.6676 36.2334 31.2263 37.0881 32.1957C37.4348 32.589 37.7548 33.0196 38.0468 33.4463C38.1388 33.5796 38.1521 33.6423 38.2134 33.737V34.6543C38.2134 36.1276 37.0201 37.321 35.5468 37.321H22.2135C20.7401 37.321 19.5468 36.1276 19.5468 34.6543V33.529C19.6308 33.2917 19.7428 33.0103 19.9215 32.5716C20.2855 31.6783 20.6801 30.7716 21.1308 29.9463C22.2681 27.8596 23.4388 26.653 24.2135 26.6543Z" fill="white"/>
</svg>
