<svg width="163" height="38" viewBox="0 0 163 38" fill="none" xmlns="http://www.w3.org/2000/svg">
<path d="M138.069 5.97212V1.38459H162.714V8.97412H153.784V23.7675C153.784 25.5904 154.189 26.8991 154.999 27.6937C155.666 28.4416 156.809 28.8155 158.428 28.8155C159.333 28.8155 160.071 28.6986 160.642 28.465C161.261 28.2312 162.047 27.8339 163 27.2731V36.2473C160.952 37.0418 158.785 37.4391 156.499 37.4391C154.69 37.4391 153.023 37.1821 151.499 36.6679C149.975 36.107 148.737 35.3592 147.784 34.4244C145.546 32.321 144.427 29.3296 144.427 25.4502V8.97412H139.317C139.807 10.6619 140.052 12.5549 140.052 14.6531V36.8782H130.694V15.7749C130.694 13.4846 130.098 11.7085 128.908 10.4465C127.717 9.18447 126.051 8.55349 123.908 8.55349C121.383 8.55349 119.336 9.5117 117.764 11.4281C116.24 13.3444 115.478 15.7515 115.478 18.6494V36.8782H106.12V1.12169H114.906V5.60885H115.478C116.573 3.87945 118.121 2.52394 120.121 1.54239C122.122 0.514175 124.289 0 126.622 0C131.003 0 134.337 1.30877 136.623 3.92618C137.17 4.55322 137.652 5.23516 138.069 5.97212Z" fill="#0064FF"/>
<path fill-rule="evenodd" clip-rule="evenodd" d="M9.2864 35.5461C12.1918 37.1821 15.4537 38 19.0731 38C26.6455 38 32.289 34.8216 36.0033 28.465L28.4315 24.8192C27.5262 26.3616 26.2879 27.6002 24.7167 28.535C23.1928 29.4231 21.3594 29.8671 19.2159 29.8671C16.6446 29.8671 14.4302 29.1427 12.5728 27.6937C10.7628 26.198 9.61994 24.0246 9.1436 21.1734H36.5036C36.6464 20.1919 36.7178 19.1636 36.7178 18.0885C36.7178 14.7233 36.0033 11.6617 34.5748 8.90405C33.1937 6.14636 31.1456 3.97292 28.4315 2.38373C25.7168 0.794597 22.4783 0 18.7161 0C15.1921 0 12.0011 0.86467 9.1436 2.59408C6.28613 4.32348 4.04778 6.66047 2.42856 9.60518C0.809337 12.5031 0 15.6581 0 19.0701C0 22.6691 0.809337 25.9176 2.42856 28.8155C4.09574 31.6667 6.3815 33.9102 9.2864 35.5461ZM26.4313 11.3579C27.1932 12.4329 27.6216 13.5314 27.7169 14.6531H9.57253C10.2865 12.4563 11.4299 10.7269 13.0012 9.46496C14.6204 8.15619 16.5492 7.50181 18.7875 7.50181C20.5495 7.50181 22.0734 7.87577 23.3596 8.62363C24.6927 9.32469 25.7168 10.2362 26.4313 11.3579Z" fill="#0064FF"/>
<path d="M43.3718 1.12169H32.7278L48.158 36.8782H57.4444L73.0175 1.12169H62.5163L53.1585 24.3985H52.5868L43.3718 1.12169Z" fill="#0064FF"/>
<path d="M87.6957 38C84.0763 38 80.8144 37.1821 77.9089 35.5461C75.004 33.9102 72.7183 31.6667 71.0511 28.8155C69.4324 25.9176 68.6225 22.6691 68.6225 19.0701C68.6225 15.6581 69.4324 12.5031 71.0511 9.60518C72.6703 6.66047 74.9087 4.32348 77.7662 2.59408C80.6236 0.86467 83.8147 0 87.3387 0C91.1009 0 94.3393 0.794597 97.054 2.38373C99.7681 3.97292 101.816 6.14636 103.197 8.90405C104.626 11.6617 105.34 14.7233 105.34 18.0885C105.34 18.5566 105.327 19.0158 105.299 19.4662C105.265 20.0502 105.207 20.6193 105.126 21.1734H77.7662C78.2425 24.0246 79.3854 26.198 81.1953 27.6937C83.0527 29.1427 85.2671 29.8671 87.8384 29.8671C89.982 29.8671 91.8154 29.4231 93.3392 28.535C94.911 27.6002 96.1487 26.3616 97.054 24.8192L104.626 28.465C100.912 34.8216 95.268 38 87.6957 38Z" fill="#0064FF"/>
</svg>
