<svg width="546" height="546" viewBox="0 0 546 546" fill="none" xmlns="http://www.w3.org/2000/svg">
<g clip-path="url(#clip0_3734_28935)">
<path d="M0 125.78C0 56.3137 56.3137 0 125.78 0H420.22C489.686 0 546 56.3137 546 125.78V420.22C546 489.686 489.686 546 420.22 546H125.78C56.3137 546 0 489.686 0 420.22V125.78Z" fill="url(#paint0_linear_3734_28935)"/>
<path d="M0 125.78C0 56.3137 56.3137 0 125.78 0H420.22C489.686 0 546 56.3137 546 125.78V420.22C546 489.686 489.686 546 420.22 546H125.78C56.3137 546 0 489.686 0 420.22V125.78Z" fill="url(#paint1_linear_3734_28935)"/>
<g filter="url(#filter0_d_3734_28935)">
<path d="M170.709 464.651C203.462 483.55 240.244 493 281.053 493C364.992 493 427.908 457.511 469.807 386.532C470.978 384.548 470.203 381.985 468.137 380.966L389.94 342.391C388.044 341.456 385.755 342.161 384.65 343.962C374.642 360.286 361.319 373.517 344.685 383.655C327.501 393.915 306.829 399.044 282.666 399.044C253.671 399.044 228.7 390.675 207.758 373.935C188.322 357.477 175.707 333.914 169.912 303.247C169.454 300.824 171.335 298.609 173.801 298.609H474.113C476.105 298.609 477.797 297.144 478.047 295.168C479.349 284.872 480 274.14 480 262.97C480 224.092 471.947 188.724 455.838 156.865C440.266 125.007 417.176 99.8979 386.567 81.5387C355.962 63.1795 319.448 54 277.028 54C237.291 54 201.315 63.9896 169.096 83.9686C136.88 103.948 111.643 130.947 93.3855 164.965C75.1285 198.443 66 234.892 66 274.31C66 315.888 75.1285 353.416 93.3855 386.895C112.18 419.833 137.953 445.752 170.709 464.651Z" fill="white"/>
</g>
</g>
<defs>
<filter id="filter0_d_3734_28935" x="21" y="24" width="514" height="539" filterUnits="userSpaceOnUse" color-interpolation-filters="sRGB">
<feFlood flood-opacity="0" result="BackgroundImageFix"/>
<feColorMatrix in="SourceAlpha" type="matrix" values="0 0 0 0 0 0 0 0 0 0 0 0 0 0 0 0 0 0 127 0" result="hardAlpha"/>
<feOffset dx="5" dy="20"/>
<feGaussianBlur stdDeviation="25"/>
<feComposite in2="hardAlpha" operator="out"/>
<feColorMatrix type="matrix" values="0 0 0 0 0 0 0 0 0 0 0 0 0 0 0 0 0 0 0.1 0"/>
<feBlend mode="normal" in2="BackgroundImageFix" result="effect1_dropShadow_3734_28935"/>
<feBlend mode="normal" in="SourceGraphic" in2="effect1_dropShadow_3734_28935" result="shape"/>
</filter>
<linearGradient id="paint0_linear_3734_28935" x1="422.5" y1="56" x2="94" y2="450.5" gradientUnits="userSpaceOnUse">
<stop stop-color="#6A01FF"/>
<stop offset="1" stop-color="#0011FF"/>
</linearGradient>
<linearGradient id="paint1_linear_3734_28935" x1="0" y1="0" x2="318.964" y2="641.521" gradientUnits="userSpaceOnUse">
<stop stop-color="#0064FF"/>
<stop offset="1" stop-color="#001AFF"/>
</linearGradient>
<clipPath id="clip0_3734_28935">
<rect width="546" height="546" fill="white"/>
</clipPath>
</defs>
</svg>
