<svg width="53" height="56" viewBox="0 0 53 56" fill="none" xmlns="http://www.w3.org/2000/svg">
<path d="M13.3806 52.3838C17.5661 54.7946 22.2664 56 27.4814 56C37.9843 56 45.9115 51.6596 51.2638 42.9788C51.6044 42.4264 51.3836 41.7062 50.8015 41.4195L41.9129 37.0425C41.3799 36.78 40.7384 36.9798 40.409 37.4742C39.1694 39.3347 37.5706 40.8606 35.6128 42.0517C33.4168 43.3604 30.7752 44.0148 27.6875 44.0148C23.9822 44.0148 20.7912 42.9471 18.115 40.8118C15.7836 38.841 14.2203 36.0717 13.4248 32.5039C13.2737 31.8264 13.8048 31.203 14.4989 31.203H51.6191C52.1795 31.203 52.6568 30.7909 52.7173 30.2337C52.8421 29.0832 52.9045 27.8909 52.9045 26.6568C52.9045 21.6974 51.8754 17.1857 49.8168 13.1218C47.827 9.05782 44.8763 5.85485 40.9649 3.51291C37.0538 1.17096 32.3877 0 26.967 0C21.889 0 17.2917 1.2743 13.1745 3.82287C9.05771 6.37147 5.8326 9.8155 3.49956 14.155C1.16652 18.4256 0 23.075 0 28.1033C0 33.4071 1.16652 38.1943 3.49956 42.4649C5.90132 46.6667 9.19474 49.9729 13.3806 52.3838Z" fill="white"/>
</svg>
